<svg xmlns="http://www.w3.org/2000/svg" width="16.94" height="24" viewBox="0 0 19.94 24">
  <defs>
    <style>
      .cls-1 {
        fill: #fff;
        fill-rule: evenodd;
      }
    </style>
  </defs>
  <path id="Shapes4FREE_-_Shopping_Bag_01_1" data-name="Shapes4FREE - Shopping Bag 01 1" class="cls-1" d="M1897.99,975h-15.98a2.24,2.24,0,0,1-1.99-2.714l1.53-14.241a2.084,2.084,0,0,1,2.03-1.847h1.04a5.373,5.373,0,0,1,10.74,0h1.06a2.084,2.084,0,0,1,2.03,1.847l1.53,14.241A2.24,2.24,0,0,1,1897.99,975Zm-12.82-4.569-1.47-7.954-0.74,10.124h8.81Zm4.82-17.42a3.32,3.32,0,0,0-3.33,3.187h6.66A3.306,3.306,0,0,0,1889.99,953.011Z" transform="translate(-1880.03 -951)"/>
</svg>
